<?xml version="1.0" standalone="no"?>
<!DOCTYPE svg PUBLIC "-//W3C//DTD SVG 20010904//EN"
 "http://www.w3.org/TR/2001/REC-SVG-20010904/DTD/svg10.dtd">
<svg version="1.0" xmlns="http://www.w3.org/2000/svg"
 width="512.000000pt" height="512.000000pt" viewBox="0 0 512.000000 512.000000"
 preserveAspectRatio="xMidYMid meet">
<metadata>
Created by potrace 1.14, written by Peter Selinger 2001-2017
</metadata>
<g transform="translate(0.000000,512.000000) scale(0.100000,-0.100000)"
fill="#000000" stroke="none">
<path d="M1093 5104 c-17 -14 -811 -1137 -1059 -1498 -40 -57 -43 -95 -10
-133 l24 -28 278 -2 c152 -2 280 -6 283 -9 3 -3 6 -83 7 -177 1 -224 10 -334
39 -492 71 -384 240 -747 485 -1040 104 -124 192 -211 370 -364 294 -254 423
-453 491 -756 16 -70 22 -141 26 -320 6 -244 10 -266 58 -279 11 -3 230 -6
486 -6 454 0 466 1 487 20 30 28 31 35 35 275 6 289 40 442 139 625 91 169
160 248 388 449 322 283 467 457 618 742 183 345 261 674 265 1117 1 110 5
203 8 206 3 4 129 6 279 7 l273 0 28 29 c43 42 38 74 -23 164 -62 89 -366 520
-439 621 -27 39 -167 237 -310 440 -143 204 -274 382 -290 398 -18 17 -40 27
-59 27 -19 0 -41 -10 -59 -27 -22 -21 -973 -1365 -1067 -1508 -22 -34 -25 -64
-9 -95 24 -47 48 -50 338 -48 l267 3 1 -115 c2 -335 -23 -470 -126 -685 -85
-178 -166 -276 -383 -465 -136 -119 -309 -287 -351 -340 l-19 -25 -60 65 c-82
90 -192 195 -292 280 -240 204 -352 346 -440 560 -33 79 -67 204 -76 273 -3
23 -7 56 -9 72 -6 36 -7 367 -1 372 2 2 124 4 271 4 293 0 312 3 334 57 8 20
9 36 2 55 -6 15 -226 331 -488 703 -263 372 -496 702 -518 734 -78 112 -87
121 -130 127 -30 4 -46 0 -62 -13z"/>
</g>
</svg>
